<svg xmlns="http://www.w3.org/2000/svg" viewBox="0 0 960 420" role="img" aria-labelledby="title desc">
  <title id="title">Engineering notes illustration</title>
  <desc id="desc">A minimalist line illustration of a notebook, terminal window, network nodes, and a small Linux workstation.</desc>
  <rect width="960" height="420" fill="#fafafa"/>
  <rect x="1" y="1" width="958" height="418" fill="none" stroke="#dddddd" stroke-width="2"/>

  <g fill="none" stroke="#222222" stroke-width="4" stroke-linecap="round" stroke-linejoin="round">
    <path d="M95 300h770" stroke="#d7d7d7"/>

    <rect x="110" y="92" width="245" height="208" rx="10"/>
    <path d="M154 92v208"/>
    <path d="M190 145h118"/>
    <path d="M190 182h92"/>
    <path d="M190 219h124"/>
    <path d="M190 256h70"/>

    <rect x="425" y="96" width="330" height="210" rx="12"/>
    <path d="M425 145h330"/>
    <circle cx="455" cy="121" r="6" fill="#222222" stroke="none"/>
    <circle cx="480" cy="121" r="6" fill="#222222" stroke="none"/>
    <circle cx="505" cy="121" r="6" fill="#222222" stroke="none"/>
    <path d="M465 190l32 24-32 24"/>
    <path d="M525 244h105"/>

    <rect x="790" y="156" width="62" height="134" rx="8"/>
    <path d="M806 183h30"/>
    <path d="M806 210h30"/>
    <circle cx="821" cy="260" r="8"/>

    <circle cx="423" cy="336" r="10"/>
    <circle cx="520" cy="346" r="10"/>
    <circle cx="618" cy="336" r="10"/>
    <path d="M433 337l77 8"/>
    <path d="M530 345l78-8"/>
    <path d="M618 326V306"/>
    <path d="M423 326V306"/>
  </g>

  <g fill="#222222" font-family="ui-monospace, SFMono-Regular, Menlo, Monaco, Consolas, 'Liberation Mono', monospace" font-size="24">
    <text x="465" y="216">ssh home</text>
    <text x="466" y="264">tmux attach</text>
  </g>

  <g fill="#555555" font-family="Arial, Helvetica, sans-serif" font-size="18">
    <text x="110" y="345">notes</text>
    <text x="425" y="374">tools, systems, durable workflows</text>
    <text x="790" y="325">workstation</text>
  </g>
</svg>
