<svg xmlns="http://www.w3.org/2000/svg" viewBox="165 200 930 930" role="img" aria-labelledby="title desc">
  <title id="title">OK logo</title>
  <desc id="desc">A red O and black K on a theme-aware background.</desc>
  <style>
    .logo-bg { fill: #f8f6f1; }
    .logo-o { fill: #d21d24; }
    .logo-k { fill: #18191b; }
    @media (prefers-color-scheme: dark) {
      .logo-bg { fill: #151515; }
      .logo-o { fill: #f05257; }
      .logo-k { fill: #e8e3d8; }
    }
  </style>
  <rect class="logo-bg" x="165" y="200" width="930" height="930"/>
  <g class="logo-o" transform="translate(0 1254) scale(0.1 -0.1)" stroke="none">
    <path d="M4165 9365 c-142 -23 -261 -61 -390 -125 -349 -171 -578 -463
-672 -855 -14 -60 -17 -167 -23 -755 -8 -768 -5 -745 -83 -894 -43 -83 -144
-197 -186 -211 -16 -5 -21 -14 -21 -38 0 -27 6 -36 36 -52 53 -28 146 -134
181 -208 69 -141 66 -93 73 -1032 6 -754 8 -858 24 -922 61 -259 169 -458 340
-628 179 -178 390 -289 659 -347 139 -30 465 -33 601 -5 278 57 472 158 651
341 188 192 297 418 340 701 12 82 15 238 15 870 1 616 4 786 15 849 27 152
121 303 235 376 71 45 68 65 -18 127 -75 55 -144 147 -182 243 -46 116 -49
165 -50 835 0 508 -3 648 -15 722 -41 256 -151 469 -335 653 -175 176 -381
285 -638 341 -129 28 -426 35 -557 14z m400 -414 c131 -65 221 -190 277 -386
l22 -80 4 -2090 c3 -2263 5 -2178 -49 -2360 -74 -246 -228 -388 -424 -387
-260 0 -433 224 -475 614 -14 134 -14 3988 0 4127 27 257 124 460 258 538 85
50 139 64 233 60 74 -3 96 -8 154 -36z"/>
  </g>
  <g class="logo-k" transform="translate(0 1254) scale(0.1 -0.1)" stroke="none">
    <path d="M6110 9265 c0 -44 4 -57 18 -61 122 -40 243 -143 304 -259 74 -142
69 82 66 -2632 l-3 -2438 -23 -65 c-55 -150 -147 -263 -262 -317 -36 -17 -73
-34 -82 -37 -15 -4 -18 -17 -18 -66 l0 -60 850 0 851 0 -3 61 -3 60 -51 18
c-118 40 -221 134 -278 255 -63 131 -60 63 -63 1384 -2 694 0 1212 5 1212 35
0 172 -138 221 -223 74 -130 1041 -2428 1041 -2475 0 -38 -58 -110 -117 -144
l-58 -35 0 -49 1 -49 334 -5 c184 -3 469 -3 633 -2 l297 4 0 53 c0 50 -2 54
-34 73 -18 11 -45 35 -60 55 -22 29 -506 1145 -1031 2377 -159 375 -171 394
-295 463 -75 42 -213 84 -305 93 -69 7 -77 18 -21 28 66 12 177 77 233 135 49
50 229 328 966 1491 256 404 315 477 422 526 l55 25 0 55 0 54 -635 0 -635 0
0 -53 c0 -51 2 -55 37 -78 39 -25 68 -67 83 -118 8 -28 -2 -48 -117 -233 -69
-112 -252 -408 -406 -658 -393 -637 -593 -949 -609 -950 -4 0 -6 471 -5 1048
3 974 4 1051 21 1106 51 171 159 294 309 353 l67 26 0 54 0 53 -850 0 -850 0
0 -55z"/>
  </g>
</svg>
