<svg xmlns="http://www.w3.org/2000/svg" viewBox="0 0 1254 1254" role="img" aria-labelledby="title desc">
  <title id="title">OK logo</title>
  <desc id="desc">A red O and black K inside a red circle on a warm white background.</desc>
  <rect width="1254" height="1254" fill="#fbf6ee"/>
  <g transform="translate(0 1254) scale(0.1 -0.1)" fill="#d21d24" stroke="none">
    <path d="M6065 11454 c-508 -37 -874 -109 -1287 -250 -1481 -509 -2629 -1766
-3072 -3364 -102 -368 -159 -696 -187 -1070 -13 -175 -7 -674 11 -835 68 -636
234 -1223 499 -1771 413 -851 1033 -1568 1801 -2081 613 -409 1275 -653 2010
-740 177 -20 628 -23 800 -5 914 99 1731 443 2456 1034 173 141 545 510 688
683 284 343 470 627 660 1005 298 595 472 1245 527 1969 18 236 7 769 -20 996
-80 659 -248 1238 -526 1800 -257 521 -560 942 -962 1336 -734 719 -1662 1162
-2671 1275 -128 14 -613 26 -727 18z m735 -138 c1136 -138 2150 -690 2894
-1576 520 -619 893 -1408 1065 -2255 150 -737 143 -1493 -20 -2243 -202 -930
-655 -1749 -1354 -2447 -618 -619 -1346 -1037 -2150 -1235 -349 -86 -588 -114
-970 -114 -309 0 -434 10 -710 59 -901 159 -1740 614 -2444 1325 -738 746
-1239 1718 -1410 2736 -58 346 -65 444 -66 864 0 416 12 569 71 890 235 1281
905 2393 1877 3118 650 485 1395 780 2202 871 248 29 253 29 585 26 197 -2
340 -8 430 -19z M4165 9365 c-142 -23 -261 -61 -390 -125 -349 -171 -578 -463
-672 -855 -14 -60 -17 -167 -23 -755 -8 -768 -5 -745 -83 -894 -43 -83 -144
-197 -186 -211 -16 -5 -21 -14 -21 -38 0 -27 6 -36 36 -52 53 -28 146 -134
181 -208 69 -141 66 -93 73 -1032 6 -754 8 -858 24 -922 61 -259 169 -458 340
-628 179 -178 390 -289 659 -347 139 -30 465 -33 601 -5 278 57 472 158 651
341 188 192 297 418 340 701 12 82 15 238 15 870 1 616 4 786 15 849 27 152
121 303 235 376 71 45 68 65 -18 127 -75 55 -144 147 -182 243 -46 116 -49
165 -50 835 0 508 -3 648 -15 722 -41 256 -151 469 -335 653 -175 176 -381
285 -638 341 -129 28 -426 35 -557 14z m400 -414 c131 -65 221 -190 277 -386
l22 -80 4 -2090 c3 -2263 5 -2178 -49 -2360 -74 -246 -228 -388 -424 -387
-260 0 -433 224 -475 614 -14 134 -14 3988 0 4127 27 257 124 460 258 538 85
50 139 64 233 60 74 -3 96 -8 154 -36z"/>
  </g>
  <g transform="translate(0 1254) scale(0.1 -0.1)" fill="#18191b" stroke="none">
    <path d="M6110 9265 c0 -44 4 -57 18 -61 122 -40 243 -143 304 -259 74 -142
69 82 66 -2632 l-3 -2438 -23 -65 c-55 -150 -147 -263 -262 -317 -36 -17 -73
-34 -82 -37 -15 -4 -18 -17 -18 -66 l0 -60 850 0 851 0 -3 61 -3 60 -51 18
c-118 40 -221 134 -278 255 -63 131 -60 63 -63 1384 -2 694 0 1212 5 1212 35
0 172 -138 221 -223 74 -130 1041 -2428 1041 -2475 0 -38 -58 -110 -117 -144
l-58 -35 0 -49 1 -49 334 -5 c184 -3 469 -3 633 -2 l297 4 0 53 c0 50 -2 54
-34 73 -18 11 -45 35 -60 55 -22 29 -506 1145 -1031 2377 -159 375 -171 394
-295 463 -75 42 -213 84 -305 93 -69 7 -77 18 -21 28 66 12 177 77 233 135 49
50 229 328 966 1491 256 404 315 477 422 526 l55 25 0 55 0 54 -635 0 -635 0
0 -53 c0 -51 2 -55 37 -78 39 -25 68 -67 83 -118 8 -28 -2 -48 -117 -233 -69
-112 -252 -408 -406 -658 -393 -637 -593 -949 -609 -950 -4 0 -6 471 -5 1048
3 974 4 1051 21 1106 51 171 159 294 309 353 l67 26 0 54 0 53 -850 0 -850 0
0 -55z"/>
  </g>
</svg>
