<svg xmlns="http://www.w3.org/2000/svg" width="1200" height="630" viewBox="0 0 1200 630">
  <defs>
    <clipPath id="avatarClip">
      <circle cx="1036" cy="150" r="72" />
    </clipPath>
  </defs>
  <rect width="1200" height="630" fill="#fbfbfa" />
  <rect x="40" y="40" width="1120" height="550" fill="#fbfbfa" stroke="#d8d8d4" stroke-width="2" />

  <image href="/logo.svg" x="80" y="72" width="64" height="64" />
  <text x="164" y="112" fill="#555555" font-size="26" font-family="Arial, Helvetica, sans-serif">
    olekk.com
  </text>
  <image href="/profile-photo.png" x="964" y="78" width="144" height="144" clip-path="url(#avatarClip)" />
  <circle cx="1036" cy="150" r="73" fill="none" stroke="#d8d8d4" stroke-width="2" />

  <path d="M795 250 C885 210, 995 215, 1110 270" fill="none" stroke="#d7e0d2" stroke-width="8" stroke-linecap="round" />
  <path d="M765 305 C875 250, 1015 260, 1130 335" fill="none" stroke="#d7e0d2" stroke-width="6" stroke-linecap="round" />
  <path d="M815 365 C910 330, 1015 335, 1110 405" fill="none" stroke="#d7e0d2" stroke-width="5" stroke-linecap="round" />
  <path d="M790 435 C905 395, 1025 410, 1134 490" fill="none" stroke="#e4d4bd" stroke-width="5" stroke-linecap="round" />
  <path d="M830 505 C920 475, 1025 488, 1100 555" fill="none" stroke="#e4d4bd" stroke-width="4" stroke-linecap="round" />

  <line x1="80" y1="168" x2="710" y2="168" stroke="#111111" stroke-width="3" />

  <text x="80" y="220" fill="#555555" font-size="24" font-family="Arial, Helvetica, sans-serif">
    RUNNING / ULTRAMARATHON
  </text>

  <text x="80" y="336" fill="#111111" font-size="76" font-family="Georgia, 'Times New Roman', serif">
    My first 100K
  </text>
  <text x="80" y="426" fill="#111111" font-size="76" font-family="Georgia, 'Times New Roman', serif">
    at Canyons
  </text>

  <text x="80" y="496" fill="#333333" font-size="30" font-family="Arial, Helvetica, sans-serif">
    I thought the early miles were free.
  </text>
  <text x="80" y="535" fill="#333333" font-size="30" font-family="Arial, Helvetica, sans-serif">
    The mountain collected interest.
  </text>

  <text x="80" y="575" fill="#666666" font-size="20" font-family="Arial, Helvetica, sans-serif">
    Oleksandr Khomenko / olekk.com / April 26, 2025
  </text>
</svg>
